<?xml version="1.0" standalone="no"?>
<!DOCTYPE svg PUBLIC "-//W3C//DTD SVG 20010904//EN"
 "http://www.w3.org/TR/2001/REC-SVG-20010904/DTD/svg10.dtd">
<svg version="1.0" xmlns="http://www.w3.org/2000/svg"
 width="720.000000pt" height="410.000000pt" viewBox="0 0 720.000000 410.000000"
 preserveAspectRatio="xMidYMid meet">

<g transform="translate(0.000000,410.000000) scale(0.100000,-0.100000)"
fill="#000000" stroke="none">
<path d="M1539 4071 c-40 -41 -40 -91 1 -133 l30 -30 0 -1161 0 -1161 -156
162 -156 162 -627 -2 c-618 -3 -626 -3 -626 -23 0 -20 8 -20 616 -23 l617 -2
166 -174 166 -173 1 -484 0 -484 207 -172 c114 -95 221 -185 237 -199 17 -14
48 -41 71 -60 l41 -34 2447 0 c2025 0 2446 -2 2446 -13 0 -26 45 -57 84 -57
52 0 86 35 86 90 0 56 -34 90 -89 90 -31 0 -44 -6 -64 -30 l-26 -30 -2432 0
-2433 0 -50 42 c-28 23 -147 123 -263 221 l-213 179 0 1665 0 1664 35 33 c28
27 35 41 35 70 0 49 -44 96 -90 96 -22 0 -41 -9 -61 -29z"/>
</g>
</svg>
