<?xml version="1.0" standalone="no"?>
<!DOCTYPE svg PUBLIC "-//W3C//DTD SVG 20010904//EN"
 "http://www.w3.org/TR/2001/REC-SVG-20010904/DTD/svg10.dtd">
<svg version="1.0" xmlns="http://www.w3.org/2000/svg"
 width="720.000000pt" height="367.000000pt" viewBox="0 0 720.000000 367.000000"
 preserveAspectRatio="xMidYMid meet">

<g transform="translate(0.000000,367.000000) scale(0.100000,-0.100000)"
fill="#000000" stroke="none">
<path d="M5054 3658 c-24 -11 -44 -48 -44 -79 0 -11 14 -34 30 -51 l30 -30 0
-859 0 -859 -349 0 c-192 0 -356 -3 -365 -6 -15 -6 -16 57 -16 664 l0 671
-127 -3 c-71 -2 -183 -4 -250 -5 -68 0 -123 -5 -123 -10 0 -19 107 -31 280
-31 l180 0 0 -660 0 -660 385 0 385 0 2 -837 c3 -786 4 -838 20 -841 16 -3 18
18 20 290 l3 293 297 -297 297 -298 662 0 661 0 30 -25 c32 -27 54 -31 91 -14
26 12 47 47 47 77 0 26 -28 62 -56 73 -32 12 -90 -11 -99 -40 l-6 -21 -657 0
-657 0 -308 308 -307 307 0 1045 0 1045 158 158 157 157 578 0 c570 0 577 0
577 20 0 20 -7 20 -588 20 l-587 0 -140 -140 c-77 -77 -143 -140 -147 -140 -5
0 -8 138 -8 308 l0 308 30 26 c75 65 3 179 -86 136z"/>
</g>
</svg>
